<svg width="31" height="36" viewBox="0 0 31 36" fill="none" xmlns="http://www.w3.org/2000/svg">
<path d="M20.428 30.8813C21.8073 30.8813 22.9254 29.7632 22.9254 28.384C22.9254 27.0047 21.8073 25.8866 20.428 25.8866C19.0488 25.8866 17.9307 27.0047 17.9307 28.384C17.9307 29.7632 19.0488 30.8813 20.428 30.8813Z" fill="#C3CAD3"/>
<path d="M30.1389 27.7334C29.3673 25.7678 28.036 24.0718 26.3098 22.8557C24.5836 21.6396 22.5385 20.9568 20.4279 20.8918C18.3173 20.9568 16.2722 21.6396 14.546 22.8557C12.8198 24.0718 11.4885 25.7678 10.7169 27.7334L10.4385 28.3839L10.7169 29.0345C11.4885 31 12.8198 32.696 14.546 33.9121C16.2722 35.1282 18.3173 35.8111 20.4279 35.876C22.5385 35.8111 24.5836 35.1282 26.3098 33.9121C28.036 32.696 29.3673 31 30.1389 29.0345L30.4173 28.3839L30.1389 27.7334ZM20.4279 33.3786C19.44 33.3786 18.4744 33.0857 17.653 32.5369C16.8316 31.988 16.1914 31.208 15.8134 30.2953C15.4353 29.3826 15.3364 28.3784 15.5292 27.4095C15.7219 26.4406 16.1976 25.5506 16.8961 24.8521C17.5946 24.1536 18.4846 23.6779 19.4535 23.4852C20.4224 23.2925 21.4266 23.3914 22.3393 23.7694C23.252 24.1474 24.032 24.7876 24.5808 25.609C25.1297 26.4304 25.4226 27.3961 25.4226 28.3839C25.421 29.7081 24.8942 30.9775 23.9579 31.9139C23.0215 32.8502 21.7521 33.377 20.4279 33.3786Z" fill="#C3CAD3"/>
<path d="M7.94128 33.3788H2.94657V3.4105H12.936V10.9026C12.938 11.5643 13.2017 12.1984 13.6696 12.6663C14.1376 13.1342 14.7716 13.3979 15.4333 13.3999H22.9254V18.3946H25.4228V10.9026C25.4272 10.7385 25.396 10.5753 25.3313 10.4245C25.2666 10.2736 25.17 10.1385 25.0482 10.0285L16.3074 1.28775C16.1975 1.16581 16.0624 1.06917 15.9115 1.00449C15.7606 0.939821 15.5975 0.908654 15.4333 0.913144H2.94657C2.28484 0.915121 1.65078 1.17887 1.18286 1.64679C0.714943 2.1147 0.451195 2.74877 0.449219 3.4105V33.3788C0.451195 34.0405 0.714943 34.6746 1.18286 35.1425C1.65078 35.6104 2.28484 35.8741 2.94657 35.8761H7.94128V33.3788ZM15.4333 3.90997L22.4259 10.9026H15.4333V3.90997Z" fill="#C3CAD3"/>
</svg>
