<svg width="30" height="36" viewBox="0 0 30 36" fill="none" xmlns="http://www.w3.org/2000/svg">
<path d="M20.0105 30.8814C21.3898 30.8814 22.5079 29.7633 22.5079 28.3841C22.5079 27.0048 21.3898 25.8867 20.0105 25.8867C18.6313 25.8867 17.5132 27.0048 17.5132 28.3841C17.5132 29.7633 18.6313 30.8814 20.0105 30.8814Z" fill="#9747FF"/>
<path d="M29.7216 27.7336C28.9501 25.768 27.6187 24.0721 25.8925 22.856C24.1663 21.6398 22.1212 20.957 20.0107 20.8921C17.9001 20.957 15.855 21.6398 14.1288 22.856C12.4026 24.0721 11.0712 25.768 10.2997 27.7336L10.0212 28.3842L10.2997 29.0347C11.0712 31.0003 12.4026 32.6962 14.1288 33.9123C15.855 35.1285 17.9001 35.8113 20.0107 35.8762C22.1212 35.8113 24.1663 35.1285 25.8925 33.9123C27.6187 32.6962 28.9501 31.0003 29.7216 29.0347L30.0001 28.3842L29.7216 27.7336ZM20.0107 33.3789C19.0228 33.3789 18.0571 33.0859 17.2357 32.5371C16.4144 31.9883 15.7742 31.2082 15.3962 30.2955C15.0181 29.3829 14.9192 28.3786 15.1119 27.4097C15.3046 26.4409 15.7803 25.5509 16.4789 24.8524C17.1774 24.1538 18.0674 23.6781 19.0362 23.4854C20.0051 23.2927 21.0094 23.3916 21.9221 23.7696C22.8347 24.1477 23.6148 24.7879 24.1636 25.6092C24.7124 26.4306 25.0054 27.3963 25.0054 28.3842C25.0037 29.7083 24.477 30.9778 23.5406 31.9141C22.6043 32.8505 21.3348 33.3772 20.0107 33.3789Z" fill="#9747FF"/>
<path d="M7.5238 33.3789H2.52909V3.41062H12.5185V10.9027C12.5205 11.5644 12.7842 12.1985 13.2522 12.6664C13.7201 13.1343 14.3541 13.3981 15.0159 13.4H22.5079V18.3948H25.0053V10.9027C25.0097 10.7386 24.9785 10.5755 24.9138 10.4246C24.8492 10.2737 24.7526 10.1386 24.6307 10.0286L15.8899 1.28787C15.78 1.16593 15.6449 1.06929 15.494 1.00462C15.3431 0.939943 15.18 0.908776 15.0159 0.913266H2.52909C1.86736 0.915243 1.2333 1.17899 0.76538 1.64691C0.297463 2.11483 0.0337146 2.74889 0.0317383 3.41062V33.3789C0.0337146 34.0406 0.297463 34.6747 0.76538 35.1426C1.2333 35.6105 1.86736 35.8743 2.52909 35.8762H7.5238V33.3789ZM15.0159 3.91009L22.0085 10.9027H15.0159V3.91009Z" fill="#9747FF"/>
</svg>
