<svg width="25" height="35" viewBox="0 0 25 35" fill="none" xmlns="http://www.w3.org/2000/svg">
<path d="M24.14 9.35448L15.74 0.954482C15.5 0.714482 15.26 0.594482 14.9 0.594482H2.9C1.58 0.594482 0.5 1.67448 0.5 2.99448V31.7945C0.5 33.1145 1.58 34.1945 2.9 34.1945H22.1C23.42 34.1945 24.5 33.1145 24.5 31.7945V10.1945C24.5 9.83448 24.38 9.59448 24.14 9.35448ZM14.9 3.47448L21.62 10.1945H14.9V3.47448ZM22.1 31.7945H2.9V2.99448H12.5V10.1945C12.5 11.5145 13.58 12.5945 14.9 12.5945H22.1V31.7945Z" fill="#9747FF"/>
<path d="M5.30005 24.5945H19.7V26.9945H5.30005V24.5945ZM5.30005 17.3945H19.7V19.7945H5.30005V17.3945Z" fill="#9747FF"/>
</svg>
