<svg width="22" height="23" viewBox="0 0 22 23" fill="none" xmlns="http://www.w3.org/2000/svg">
<path d="M0 0V21.3571H13.1429V19.7143H1.64286V1.64286H9.85714V6.57143H14.7857V8.21429H16.4286V5.42143L16.1821 5.175L11.2536 0.246429L11.0071 0H0ZM11.5 2.79286L13.6357 4.92857H11.5V2.79286ZM3.28571 8.21429V9.85714H13.1429V8.21429H3.28571ZM17.25 9.85714V11.5C15.8536 11.7464 14.7857 12.8964 14.7857 14.375C14.7857 16.0179 16.0179 17.25 17.6607 17.25H18.4821C19.1393 17.25 19.7143 17.825 19.7143 18.4821C19.7143 19.1393 19.1393 19.7143 18.4821 19.7143H15.6071V21.3571H17.25V23H18.8929V21.3571C20.2893 21.1107 21.3571 19.9607 21.3571 18.4821C21.3571 16.8393 20.125 15.6071 18.4821 15.6071H17.6607C17.0036 15.6071 16.4286 15.0321 16.4286 14.375C16.4286 13.7179 17.0036 13.1429 17.6607 13.1429H20.5357V11.5H18.8929V9.85714H17.25ZM3.28571 12.3214V13.9643H9.03571V12.3214H3.28571ZM10.6786 12.3214V13.9643H13.1429V12.3214H10.6786ZM3.28571 15.6071V17.25H9.03571V15.6071H3.28571ZM10.6786 15.6071V17.25H13.1429V15.6071H10.6786Z" fill="white"/>
</svg>
