<svg width="72" height="72" viewBox="0 0 72 72" fill="none" xmlns="http://www.w3.org/2000/svg">
<path d="M36 0C45.5478 0 54.7045 3.79285 61.4558 10.5442C68.2072 17.2955 72 26.4522 72 36C72 45.5478 68.2072 54.7045 61.4558 61.4558C54.7045 68.2072 45.5478 72 36 72C26.4522 72 17.2955 68.2072 10.5442 61.4558C3.79285 54.7045 0 45.5478 0 36C0 26.4522 3.79285 17.2955 10.5442 10.5442C17.2955 3.79285 26.4522 0 36 0ZM37.908 15.3874C33.7217 15.3874 30.4406 16.5754 28.008 18.9514C25.5189 21.3274 24.3309 24.6086 24.3309 28.7949H30.78C30.78 26.4189 31.2326 24.552 32.1943 23.2509C33.2691 21.6669 35.0229 20.9314 37.512 20.9314C39.4354 20.9314 40.9629 21.4406 42.0377 22.5154C43.056 23.5903 43.6217 25.0611 43.6217 26.928C43.6217 28.3423 43.1126 29.7 42.0943 30.9446L41.4154 31.7366C37.7383 35.0177 35.532 37.3937 34.7966 38.9211C34.0046 40.4486 33.6651 42.3154 33.6651 44.4651V45.2571H40.1709V44.4651C40.1709 43.1074 40.4537 41.9194 41.0194 40.788C41.5286 39.7697 42.264 38.808 43.2823 37.9594C45.9977 35.5834 47.6383 34.056 48.1474 33.4903C49.5051 31.68 50.2406 29.3606 50.2406 26.532C50.2406 23.0811 49.1091 20.3657 46.8463 18.3857C44.5834 16.3491 41.5851 15.3874 37.908 15.3874ZM36.8897 48.0291C35.7363 47.9979 34.6174 48.4251 33.7783 49.2171C33.364 49.6074 33.0385 50.0821 32.8237 50.6092C32.609 51.1363 32.5101 51.7033 32.5337 52.272C32.5337 53.5166 32.9297 54.5349 33.7783 55.3269C34.6111 56.1352 35.7292 56.5824 36.8897 56.5714C38.1343 56.5714 39.1526 56.1754 40.0011 55.3834C40.4242 54.9852 40.7587 54.5023 40.9829 53.9662C41.2071 53.4301 41.3159 52.8529 41.3023 52.272C41.3131 51.705 41.2084 51.1417 40.9944 50.6165C40.7804 50.0913 40.4617 49.6151 40.0577 49.2171C39.1967 48.4236 38.0601 47.9974 36.8897 48.0291Z" fill="#F24E1E"/>
</svg>
