<svg width="48" height="48" viewBox="0 0 48 48" fill="none" xmlns="http://www.w3.org/2000/svg">
<circle cx="24" cy="24" r="24" fill="#9E41D6"/>
<g clip-path="url(#clip0_31_1379)">
<path d="M24 30.199C22.774 30.199 21.5755 29.8354 20.556 29.1543C19.5366 28.4731 18.7421 27.505 18.2729 26.3722C17.8037 25.2395 17.681 23.9931 17.9201 22.7906C18.1593 21.5882 18.7497 20.4836 19.6167 19.6167C20.4836 18.7497 21.5882 18.1593 22.7906 17.9201C23.9931 17.681 25.2395 17.8037 26.3722 18.2729C27.505 18.7421 28.4731 19.5366 29.1543 20.556C29.8354 21.5755 30.199 22.774 30.199 24C30.199 25.6441 29.5459 27.2208 28.3833 28.3833C27.2208 29.5459 25.6441 30.199 24 30.199ZM24 19.5722C23.1243 19.5722 22.2682 19.8319 21.54 20.3184C20.8119 20.8049 20.2443 21.4965 19.9092 22.3055C19.5741 23.1146 19.4864 24.0049 19.6572 24.8638C19.8281 25.7227 20.2498 26.5117 20.869 27.131C21.4883 27.7502 22.2773 28.1719 23.1362 28.3428C23.9951 28.5136 24.8854 28.4259 25.6945 28.0908C26.5035 27.7557 27.1951 27.1881 27.6816 26.46C28.1681 25.7318 28.4278 24.8757 28.4278 24C28.4278 22.8257 27.9613 21.6994 27.131 20.869C26.3006 20.0387 25.1743 19.5722 24 19.5722ZM35.8223 21.5204L34.1729 23.7122C34.184 23.9114 34.1729 24.1218 34.1729 24.2767L35.8223 26.4796C35.9043 26.5868 35.9601 26.7117 35.9851 26.8444C36.0101 26.977 36.0036 27.1137 35.9662 27.2434C35.6872 28.2639 35.2819 29.2457 34.7596 30.1658C34.6922 30.2826 34.5997 30.383 34.4886 30.4596C34.3775 30.5362 34.2508 30.5871 34.1176 30.6085L31.4056 30.996L30.996 31.4056L30.6085 34.1176C30.5871 34.2508 30.5362 34.3775 30.4596 34.4886C30.383 34.5997 30.2826 34.6923 30.1658 34.7596C29.2457 35.2819 28.2639 35.6872 27.2434 35.9662C27.1137 36.0036 26.977 36.0101 26.8444 35.9851C26.7117 35.9601 26.5868 35.9043 26.4796 35.8223L24.2878 34.184H23.7122L21.5204 35.8223C21.4132 35.9043 21.2883 35.9601 21.1556 35.9851C21.023 36.0101 20.8863 36.0036 20.7566 35.9662C19.7361 35.6872 18.7543 35.2819 17.8342 34.7596C17.7174 34.6923 17.617 34.5997 17.5404 34.4886C17.4638 34.3775 17.4129 34.2508 17.3915 34.1176L17.004 31.4056L16.5944 30.996L13.8824 30.6085C13.7492 30.5871 13.6225 30.5362 13.5114 30.4596C13.4003 30.383 13.3077 30.2826 13.2404 30.1658C12.7181 29.2457 12.3128 28.2639 12.0338 27.2434C11.9964 27.1137 11.9899 26.977 12.0149 26.8444C12.0399 26.7117 12.0957 26.5868 12.1777 26.4796L13.8271 24.2878V23.7233L12.1777 21.5204C12.0957 21.4132 12.0399 21.2883 12.0149 21.1556C11.9899 21.023 11.9964 20.8863 12.0338 20.7566C12.3128 19.7361 12.7181 18.7543 13.2404 17.8342C13.3077 17.7174 13.4003 17.617 13.5114 17.5404C13.6225 17.4638 13.7492 17.4129 13.8824 17.3915L16.5944 17.004L17.004 16.5944L17.3915 13.8824C17.4129 13.7492 17.4638 13.6225 17.5404 13.5114C17.617 13.4003 17.7174 13.3078 17.8342 13.2404C18.7543 12.7181 19.7361 12.3128 20.7566 12.0338C20.8322 12.0119 20.9104 12.0007 20.9891 12.0006C21.1811 11.9981 21.3683 12.0605 21.5204 12.1777L23.7122 13.816H24.2878L26.4796 12.1777C26.5868 12.0957 26.7117 12.0399 26.8444 12.0149C26.977 11.9899 27.1137 11.9964 27.2434 12.0338C28.2639 12.3128 29.2457 12.7181 30.1658 13.2404C30.2826 13.3078 30.383 13.4003 30.4596 13.5114C30.5362 13.6225 30.5871 13.7492 30.6085 13.8824L30.996 16.6055C31.1288 16.7384 31.2838 16.8823 31.3945 17.004L34.1176 17.3915C34.2508 17.4129 34.3775 17.4638 34.4886 17.5404C34.5997 17.617 34.6922 17.7174 34.7596 17.8342C35.2819 18.7543 35.6872 19.7361 35.9662 20.7566C36.0036 20.8863 36.0101 21.023 35.9851 21.1556C35.9601 21.2883 35.9043 21.4132 35.8223 21.5204ZM33.4202 19.0851L30.841 18.7198C30.6419 18.6872 30.4591 18.5899 30.3207 18.4431C30.1879 18.2992 29.7783 17.8785 29.5791 17.7014C29.4174 17.5625 29.3113 17.3699 29.2802 17.159L28.9149 14.5798C28.3635 14.2855 27.7853 14.0445 27.188 13.8603L25.0959 15.4321C24.9275 15.5579 24.7185 15.6171 24.5092 15.5982H23.4908C23.2815 15.6171 23.0725 15.5579 22.9041 15.4321L20.812 13.8603C20.2147 14.0445 19.6365 14.2855 19.0851 14.5798L18.7198 17.159C18.6887 17.3699 18.5826 17.5625 18.4209 17.7014C18.1648 17.9244 17.9244 18.1648 17.7014 18.4209C17.5625 18.5826 17.3699 18.6887 17.159 18.7198L14.5798 19.0851C14.2901 19.6387 14.0494 20.2165 13.8603 20.812L15.4321 22.9041C15.5461 23.0663 15.6079 23.2594 15.6093 23.4576C15.5982 23.6568 15.5871 24.2325 15.5982 24.5092C15.6171 24.7185 15.5579 24.9275 15.4321 25.0959L13.8603 27.188C14.0494 27.7835 14.2901 28.3613 14.5798 28.9149L17.159 29.2802C17.3699 29.3113 17.5625 29.4174 17.7014 29.5791C17.9244 29.8352 18.1648 30.0756 18.4209 30.2986C18.5826 30.4375 18.6887 30.6301 18.7198 30.841L19.0851 33.4202C19.6387 33.7099 20.2165 33.9506 20.812 34.1397L22.9041 32.5679C23.0725 32.4421 23.2815 32.3829 23.4908 32.4018C23.8229 32.4129 24.1771 32.4129 24.5092 32.4018C24.7185 32.3829 24.9275 32.4421 25.0959 32.5679L27.188 34.1397C27.7853 33.9555 28.3635 33.7145 28.9149 33.4202L29.2802 30.841C29.3113 30.6301 29.4174 30.4375 29.5791 30.2986C29.8352 30.0756 30.0756 29.8352 30.2986 29.5791C30.4375 29.4174 30.6301 29.3113 30.841 29.2802L33.4202 28.9149C33.7145 28.3635 33.9555 27.7853 34.1397 27.188L32.5679 25.0959C32.4539 24.9337 32.3921 24.7406 32.3907 24.5424C32.4018 24.3432 32.4129 23.7675 32.4018 23.4908C32.3829 23.2815 32.4421 23.0725 32.5679 22.9041L34.1397 20.812C33.9555 20.2147 33.7145 19.6365 33.4202 19.0851Z" fill="white"/>
</g>
<defs>
<clipPath id="clip0_31_1379">
<rect width="28" height="28" fill="white" transform="translate(4.20117 24) rotate(-45)"/>
</clipPath>
</defs>
</svg>
